<svg xmlns="http://www.w3.org/2000/svg" width="32" height="32" viewBox="0 0 32 32">
  <!-- Candle -->
  <rect x="15" y="8" width="2" height="8" fill="#FFE4B5" stroke="#DDD" stroke-width="0.5"/>
  
  <!-- Flame -->
  <ellipse cx="16" cy="7" rx="1.5" ry="2" fill="#FF6B35"/>
  <ellipse cx="16" cy="6.5" rx="1" ry="1.5" fill="#FFD700"/>
  
  <!-- Cake Top Layer -->
  <ellipse cx="16" cy="16" rx="10" ry="3" fill="#FFB6C1"/>
  <rect x="6" y="16" width="20" height="4" fill="#FFB6C1"/>
  
  <!-- Frosting -->
  <path d="M6 16 Q8 14 10 16 Q12 14 14 16 Q16 14 18 16 Q20 14 22 16 V20 H6 Z" fill="#FFF"/>
  
  <!-- Cake Bottom Layer -->
  <ellipse cx="16" cy="20" rx="12" ry="3" fill="#DEB887"/>
  <rect x="4" y="20" width="24" height="6" fill="#DEB887"/>
  <ellipse cx="16" cy="26" rx="12" ry="3" fill="#CD853F"/>
  
  <!-- Decorative dots -->
  <circle cx="10" cy="18" r="0.8" fill="#FF69B4"/>
  <circle cx="22" cy="18" r="0.8" fill="#FF69B4"/>
  <circle cx="12" cy="23" r="0.8" fill="#32CD32"/>
  <circle cx="20" cy="23" r="0.8" fill="#32CD32"/>
  <circle cx="16" cy="24" r="0.8" fill="#FF4500"/>
</svg> 